<svg xmlns="http://www.w3.org/2000/svg">
  <g id='happy'>
    <!-- width="30" height="30" viewBox="0 0 30 30" -->
    <path fill-rule="evenodd" clip-rule="evenodd" d="M0 15C0 6.71573 6.71573 0 15 0C23.2843 0 30 6.71573 30 15C30 23.2843 23.2843 30 15 30C6.71573 30 0 23.2843 0 15ZM15 2C7.8203 2 2 7.8203 2 15C2 22.1797 7.8203 28 15 28C22.1797 28 28 22.1797 28 15C28 7.8203 22.1797 2 15 2ZM10 12H8V10H10V12ZM22 12H20V10H22V12ZM9.2 16.6L9.8 17.4C12.4 20.8667 17.6 20.8667 20.2 17.4L20.8 16.6L22.4 17.8L21.8 18.6C18.4 23.1333 11.6 23.1333 8.2 18.6L7.6 17.8L9.2 16.6Z" fill="#FF868E"/>
  </g>
  <g id='like'>
    <!-- width="30" height="26" viewBox="0 0 30 26" -->
    <path fill-rule="evenodd" clip-rule="evenodd" d="M8.07107 2C4.71811 2 2 4.71811 2 8.07107C2 9.68122 2.63963 11.2254 3.77817 12.364L15 23.5858L26.2218 12.364C27.3604 11.2254 28 9.68121 28 8.07107C28 4.71811 25.2819 2 21.9289 2C20.3188 2 18.7746 2.63963 17.636 3.77817L15.7071 5.70711C15.3166 6.09763 14.6834 6.09763 14.2929 5.70711L12.364 3.77818C11.2254 2.63963 9.68121 2 8.07107 2ZM0 8.07107C0 3.61354 3.61354 0 8.07107 0C10.2116 0 12.2646 0.850343 13.7782 2.36396L15 3.58579L16.2218 2.36396C17.7354 0.850341 19.7884 0 21.9289 0C26.3865 0 30 3.61354 30 8.07107C30 10.2116 29.1497 12.2646 27.636 13.7782L15.7071 25.7071C15.3166 26.0976 14.6834 26.0976 14.2929 25.7071L2.36396 13.7782C0.850339 12.2646 0 10.2116 0 8.07107Z" fill="#FF868E"/>
  </g>
  <g id='sad'>
    <!-- width="30" height="30" viewBox="0 0 30 30" -->
    <path fill-rule="evenodd" clip-rule="evenodd" d="M0 15C0 6.71573 6.71573 0 15 0C23.2843 0 30 6.71573 30 15C30 23.2843 23.2843 30 15 30C6.71573 30 0 23.2843 0 15ZM15 2C7.8203 2 2 7.8203 2 15C2 22.1797 7.8203 28 15 28C22.1797 28 28 22.1797 28 15C28 7.8203 22.1797 2 15 2ZM10 12H8V10H10V12ZM22 12H20V10H22V12ZM7.6 20.2L8.2 19.4C11.6 14.8667 18.4 14.8667 21.8 19.4L22.4 20.2L20.8 21.4L20.2 20.6C17.6 17.1333 12.4 17.1333 9.8 20.6L9.2 21.4L7.6 20.2Z" fill="#FF868E"/>
  </g>
  <g id='search'>
  <!-- width="20" height="20" viewBox="0 0 20 20" -->
    <path d="M19.3613 18.2168L14.6012 13.2662C15.8251 11.8113 16.4957 9.98069 16.4957 8.07499C16.4957 3.62251 12.8732 0 8.4207 0C3.96821 0 0.345703 3.62251 0.345703 8.07499C0.345703 12.5275 3.96821 16.15 8.4207 16.15C10.0922 16.15 11.6851 15.6458 13.047 14.6888L17.8432 19.677C18.0436 19.8852 18.3133 20 18.6022 20C18.8757 20 19.1352 19.8957 19.3321 19.7061C19.7506 19.3034 19.764 18.6357 19.3613 18.2168ZM8.4207 2.10652C11.7118 2.10652 14.3892 4.78391 14.3892 8.07499C14.3892 11.3661 11.7118 14.0435 8.4207 14.0435C5.12961 14.0435 2.45222 11.3661 2.45222 8.07499C2.45222 4.78391 5.12961 2.10652 8.4207 2.10652Z" fill="#FF868E"/>
  </g>
  <g id='close'>
  <!-- width="18" height="18" viewBox="0 0 18 18"  -->
    <path fill-rule="evenodd" clip-rule="evenodd" d="M8.05691 8.99997L0.52832 1.47137L1.47113 0.528564L8.99972 8.05716L16.5283 0.528564L17.4711 1.47137L9.94253 8.99997L17.4711 16.5286L16.5283 17.4714L8.99972 9.94278L1.47113 17.4714L0.52832 16.5286L8.05691 8.99997Z" fill="#FF868E"/>
  </g>
  <g id='like-filled'>
  <!-- width="20" height="18" viewBox="0 0 20 18" -->
    <path d="M5.38071 0C2.40903 0 0 2.40903 0 5.38071C0 6.80777 0.566893 8.17637 1.57597 9.18545L9.5286 17.1381C9.78895 17.3984 10.2111 17.3984 10.4714 17.1381L18.424 9.18545C19.4331 8.17637 20 6.80777 20 5.38071C20 2.40903 17.591 0 14.6193 0C13.1922 0 11.8236 0.566894 10.8146 1.57597L10 2.39052L9.18545 1.57597C8.17637 0.566895 6.80777 0 5.38071 0Z" fill="#FF868E"/>
  </g>
  <g id='reload'>
  <!-- width="18" height="20" viewBox="0 0 18 20" -->
    <path fill-rule="evenodd" clip-rule="evenodd" d="M8.48189 2.49989L6.93396 0.953004L7.88633 0L11.0577 3.16928L7.88634 6.33873L6.93395 5.38576L8.47232 3.84832C4.51244 3.99813 1.3473 7.25498 1.3473 11.2478C1.3473 15.3361 4.66547 18.6527 8.75744 18.6527C12.8494 18.6527 16.1676 15.3361 16.1676 11.2478V10.5742H17.5149V11.2478C17.5149 16.081 13.5927 20 8.75744 20C3.92221 20 0 16.081 0 11.2478C0 6.50682 3.77407 2.64542 8.48189 2.49989Z" fill="#FF868E"/>
  </g>
  <g id='upload'>
  <!-- width="16" height="16" viewBox="0 0 16 16" -->
    <path fill-rule="evenodd" clip-rule="evenodd" d="M7.86601 0L12.2355 4.03339L11.4129 4.92452L8.48919 2.22567V12.3618H7.27645V2.30464L4.67336 4.90772L3.81583 4.05019L7.86601 0ZM1.21274 14.7873V7.51081H0V16H15.7656V7.51081H14.5529V14.7873H1.21274Z" fill="white"/>
  </g>
  <g id='prev'>
  <!-- width="7" height="12" viewBox="0 0 7 12" -->
    <path d="M5.99984 12C5.74397 12 5.48797 11.9023 5.29297 11.707L0.292969 6.70703C-0.0976562 6.31641 -0.0976562 5.68359 0.292969 5.29297L5.29297 0.292969C5.68359 -0.0976562 6.31641 -0.0976562 6.70703 0.292969C7.09766 0.683594 7.09766 1.31641 6.70703 1.70703L2.41391 6L6.70766 10.2937C7.09828 10.6844 7.09828 11.3172 6.70766 11.7078C6.51234 11.9031 6.25609 12 5.99984 12Z" fill="#8C8C8C"/>
  </g>
  <g id='next'>
  <!-- width="7" height="12" viewBox="0 0 7 12" -->
    <path d="M1.00016 0C1.25603 0 1.51203 0.0976562 1.70703 0.292969L6.70703 5.29297C7.09766 5.68359 7.09766 6.31641 6.70703 6.70703L1.70703 11.707C1.31641 12.0977 0.683594 12.0977 0.292969 11.707C-0.0976562 11.3164 -0.0976562 10.6836 0.292969 10.293L4.58609 6L0.292344 1.70625C-0.0982809 1.31563 -0.0982809 0.682813 0.292344 0.292188C0.487657 0.0968752 0.743906 0 1.00016 0Z" fill="#8C8C8C"/>
  </g>
  <g id='down'>
  <!-- width="12" height="8" viewBox="0 0 12 8" -->
    <path d="M6.59406 7.17417L11.7538 2.01436C12.0821 1.68616 12.0821 1.15395 11.7538 0.825875C11.4256 0.497795 10.8935 0.497795 10.5655 0.825875L5.99993 5.39154L1.43458 0.826055C1.10635 0.497915 0.574264 0.497915 0.24617 0.826055C-0.0820567 1.15414 -0.0820567 1.68628 0.24617 2.01447L5.40591 7.17431C5.57003 7.33836 5.78492 7.42029 5.9999 7.42029C6.21498 7.42029 6.43002 7.3382 6.59406 7.17417Z" fill="#8C8C8C"/>
  </g>
  <g id='error-close'>
    <svg  fill="none" xmlns="http://www.w3.org/2000/svg">
      <g clip-path="url(#clip0_1_1587)">
      <path fill-rule="evenodd" clip-rule="evenodd" d="M0 10C0 4.47715 4.47715 0 10 0C15.5228 0 20 4.47715 20 10C20 15.5228 15.5228 20 10 20C4.47715 20 0 15.5228 0 10ZM10 1.33333C5.21353 1.33333 1.33333 5.21353 1.33333 10C1.33333 14.7865 5.21353 18.6667 10 18.6667C14.7865 18.6667 18.6667 14.7865 18.6667 10C18.6667 5.21353 14.7865 1.33333 10 1.33333ZM9.05719 10L5.5286 6.4714L6.4714 5.5286L10 9.05719L13.5286 5.5286L14.4714 6.4714L10.9428 10L14.4714 13.5286L13.5286 14.4714L10 10.9428L6.4714 14.4714L5.5286 13.5286L9.05719 10Z" fill="#FF868E"/>
      </g>
      <defs>
      <clipPath id="clip0_1_1587">
      <rect width="20" height="20" fill="white"/>
      </clipPath>
      </defs>
    </svg>
  </g>
  <g id='success'>
    <svg width="20" height="20" viewBox="0 0 20 20" fill="none" xmlns="http://www.w3.org/2000/svg">
      <g clip-path="url(#clip0_1_1589)">
      <path fill-rule="evenodd" clip-rule="evenodd" d="M0 10C0 4.47715 4.47715 0 10 0C15.5228 0 20 4.47715 20 10C20 15.5228 15.5228 20 10 20C4.47715 20 0 15.5228 0 10ZM10 1.33333C5.21353 1.33333 1.33333 5.21353 1.33333 10C1.33333 14.7865 5.21353 18.6667 10 18.6667C14.7865 18.6667 18.6667 14.7865 18.6667 10C18.6667 5.21353 14.7865 1.33333 10 1.33333ZM15.1872 7.08313L9.42904 14.2809L4.90654 10.5121L5.76012 9.48785L9.23763 12.3858L14.1461 6.2502L15.1872 7.08313Z" fill="#97EAB9"/>
      </g>
      <defs>
      <clipPath id="clip0_1_1589">
      <rect width="20" height="20" fill="white"/>
      </clipPath>
      </defs>
    </svg>

  </g>
  <g id='logo'>
    <svg width="107" height="24" viewBox="0 0 107 24" fill="none" xmlns="http://www.w3.org/2000/svg">
    <path d="M7.84082 12.4568C7.84082 9.90693 9.9079 7.83984 12.4578 7.83984L19.3832 7.83984C21.9331 7.83984 24.0002 9.90693 24.0002 12.4568C24.0002 15.0067 21.9331 17.0738 19.3832 17.0738H12.4578C9.9079 17.0738 7.84082 15.0067 7.84082 12.4568Z" fill="#FF868E"/>
    <path d="M12.4578 24C9.9079 24 7.84082 21.9329 7.84082 19.383L7.84082 12.4576C7.84082 9.90772 9.9079 7.84063 12.4578 7.84063V7.84063C15.0077 7.84063 17.0747 9.90772 17.0747 12.4576V19.383C17.0747 21.9329 15.0077 24 12.4578 24V24Z" fill="#FF868E"/>
    <path d="M11.5422 2.8856C11.5422 4.47927 10.2503 5.7712 8.6566 5.7712C7.06292 5.7712 5.771 4.47927 5.771 2.8856C5.771 1.29193 7.06292 0 8.6566 0C10.2503 0 11.5422 1.29193 11.5422 2.8856Z" fill="#FF868E"/>
    <path d="M5.7712 16.7372C5.7712 18.3308 4.47927 19.6228 2.8856 19.6228C1.29193 19.6228 0 18.3308 0 16.7372C0 15.1435 1.29193 13.8516 2.8856 13.8516C4.47927 13.8516 5.7712 15.1435 5.7712 16.7372Z" fill="#FF868E"/>
    <path d="M19.6223 2.8856C19.6223 4.47927 18.3303 5.7712 16.7367 5.7712C15.143 5.7712 13.8511 4.47927 13.8511 2.8856C13.8511 1.29193 15.143 0 16.7367 0C18.3303 0 19.6223 1.29193 19.6223 2.8856Z" fill="#FF868E"/>
    <path d="M5.7712 8.65709C5.7712 10.2508 4.47927 11.5427 2.8856 11.5427C1.29193 11.5427 0 10.2508 0 8.65709C0 7.06341 1.29193 5.77148 2.8856 5.77148C4.47927 5.77148 5.7712 7.06341 5.7712 8.65709Z" fill="#FF868E"/>
    <path d="M31.8945 18.8003V6.43555H37.6929C38.6657 6.43555 39.4593 6.62115 40.0737 6.99235C40.7009 7.36355 41.1681 7.86915 41.4753 8.50915C41.7825 9.14915 41.9361 9.87875 41.9361 10.6979C41.9361 11.5299 41.7569 12.2659 41.3985 12.9059C41.0529 13.5459 40.5537 14.0451 39.9009 14.4035C39.2609 14.7491 38.4993 14.9219 37.6161 14.9219H34.4865V18.8003H31.8945ZM34.4865 12.8675H37.0785C37.8209 12.8675 38.3777 12.6755 38.7489 12.2915C39.1329 11.8947 39.3249 11.3635 39.3249 10.6979C39.3249 9.98115 39.1457 9.43715 38.7873 9.06595C38.4289 8.68195 37.8913 8.48995 37.1745 8.48995H34.4865V12.8675Z" fill="#1D1D1D"/>
    <path d="M48.1119 18.9923C46.5375 18.9923 45.2895 18.6019 44.3679 17.8211C43.4463 17.0275 42.9855 15.8307 42.9855 14.2307C42.9855 12.7843 43.3695 11.6387 44.1375 10.7939C44.9183 9.93635 46.0767 9.50755 47.6127 9.50755C49.0207 9.50755 50.0959 9.87875 50.8383 10.6211C51.5935 11.3507 51.9711 12.3107 51.9711 13.5011V15.1523L45.3855 15.1523C45.5263 15.8819 45.8591 16.3811 46.3839 16.6499C46.9215 16.9187 47.6767 17.0531 48.6495 17.0531C49.1359 17.0531 49.6287 17.0083 50.1279 16.9187C50.6399 16.8291 51.0751 16.7139 51.4335 16.5731V18.4163C51.0111 18.6083 50.5183 18.7491 49.9551 18.8387C49.3919 18.9411 48.7775 18.9923 48.1119 18.9923ZM45.3855 13.5587H49.7055V13.0595C49.7055 12.5347 49.5519 12.1251 49.2447 11.8307C48.9375 11.5235 48.4191 11.3699 47.6895 11.3699C46.8319 11.3699 46.2303 11.5427 45.8847 11.8883C45.5519 12.2339 45.3855 12.7907 45.3855 13.5587Z" fill="#1D1D1D"/>
    <path d="M57.3854 18.9923C56.3358 18.9923 55.555 18.7171 55.043 18.1667C54.5438 17.6163 54.2942 16.8675 54.2942 15.9203V11.6963H53.0078V9.69955H54.2942V7.74115L56.8862 6.97315V9.69955H59.1902L59.0366 11.6963H56.8862V15.7475C56.8862 16.2467 57.0014 16.5923 57.2318 16.7843C57.4622 16.9635 57.8206 17.0531 58.307 17.0531C58.6654 17.0531 59.0366 16.9891 59.4206 16.8611V18.6467C59.139 18.7619 58.8318 18.8451 58.499 18.8963C58.1662 18.9603 57.795 18.9923 57.3854 18.9923Z" fill="#1D1D1D"/>
    <path d="M63.9572 18.9923C63.2788 18.9923 62.6324 18.9411 62.018 18.8387C61.4036 18.7491 60.9108 18.6339 60.5396 18.4931V16.3427C60.9876 16.5219 61.4932 16.6627 62.0564 16.7651C62.6196 16.8547 63.138 16.8995 63.6116 16.8995C64.2516 16.8995 64.6996 16.8611 64.9556 16.7843C65.2244 16.7075 65.3588 16.5347 65.3588 16.2659C65.3588 15.9587 65.154 15.7347 64.7444 15.5939C64.3476 15.4531 63.7524 15.2547 62.9588 14.9987C62.1268 14.7171 61.4868 14.3779 61.0388 13.9811C60.5908 13.5843 60.3668 12.9955 60.3668 12.2147C60.3668 11.3443 60.6804 10.6787 61.3076 10.2179C61.9476 9.74435 62.9716 9.50755 64.3796 9.50755C64.9428 9.50755 65.474 9.55235 65.9732 9.64195C66.4724 9.71875 66.8948 9.81475 67.2404 9.92995V12.0611C66.8948 11.8947 66.498 11.7731 66.05 11.6963C65.602 11.6067 65.186 11.5619 64.802 11.5619C64.2516 11.5619 63.81 11.6003 63.4772 11.6771C63.1572 11.7539 62.9972 11.9203 62.9972 12.1763C62.9972 12.4579 63.17 12.6563 63.5156 12.7715C63.874 12.8867 64.4244 13.0595 65.1668 13.2899C65.8964 13.5075 66.466 13.7443 66.8756 14.0003C67.2852 14.2563 67.5732 14.5635 67.7396 14.9219C67.906 15.2675 67.9892 15.7027 67.9892 16.2275C67.9892 18.0707 66.6452 18.9923 63.9572 18.9923Z" fill="#1D1D1D"/>
    <path d="M69.7883 18.8003V6.43555L75.5867 6.43555C76.5595 6.43555 77.3531 6.62115 77.9675 6.99235C78.5947 7.36355 79.0619 7.86915 79.3691 8.50915C79.6763 9.14915 79.8299 9.87875 79.8299 10.6979C79.8299 11.5299 79.6507 12.2659 79.2923 12.9059C78.9467 13.5459 78.4475 14.0451 77.7947 14.4035C77.1547 14.7491 76.3931 14.9219 75.5099 14.9219H72.3803V18.8003H69.7883ZM72.3803 12.8675H74.9723C75.7147 12.8675 76.2715 12.6755 76.6427 12.2915C77.0267 11.8947 77.2187 11.3635 77.2187 10.6979C77.2187 9.98115 77.0395 9.43715 76.6811 9.06595C76.3227 8.68195 75.7851 8.48995 75.0683 8.48995H72.3803V12.8675Z" fill="#1D1D1D"/>
    <path d="M83.7491 18.9923C83.1731 18.9923 82.6355 18.8899 82.1363 18.6851C81.6499 18.4675 81.2531 18.1539 80.9459 17.7443C80.6515 17.3219 80.5043 16.7971 80.5043 16.1699C80.5043 15.2739 80.8179 14.5571 81.4451 14.0195C82.0851 13.4819 83.0259 13.2131 84.2675 13.2131H86.9555V12.9635C86.9555 12.4003 86.7955 12.0035 86.4755 11.7731C86.1683 11.5427 85.5411 11.4275 84.5939 11.4275C83.5571 11.4275 82.5587 11.5875 81.5987 11.9075V10.0835C82.0211 9.91715 82.5331 9.78275 83.1347 9.68035C83.7491 9.56515 84.4147 9.50755 85.1315 9.50755C86.5011 9.50755 87.5571 9.78915 88.2995 10.3523C89.0547 10.9027 89.4323 11.7923 89.4323 13.0211V18.8003H87.1859L87.0515 17.9747C86.6931 18.2947 86.2515 18.5443 85.7267 18.7235C85.2019 18.9027 84.5427 18.9923 83.7491 18.9923ZM84.4595 17.2835C85.0355 17.2835 85.5347 17.1875 85.9571 16.9955C86.3795 16.8035 86.7123 16.5603 86.9555 16.2659V14.8259H84.3251C83.3139 14.8259 82.8083 15.2419 82.8083 16.0739C82.8083 16.8803 83.3587 17.2835 84.4595 17.2835Z" fill="#1D1D1D"/>
    <path d="M93.048 18.8003L90.648 9.69955H93.24L94.6224 15.6131L96.1392 10.8707V9.69955H98.1168L99.8448 15.6131L101.189 9.69955H103.762L101.381 18.8003H99L97.2528 13.4819L95.4672 18.8003H93.048Z" fill="#1D1D1D"/>
    </svg>

  </g>
</svg>
